<svg width="62" height="62" viewBox="0 0 62 62" fill="none" xmlns="http://www.w3.org/2000/svg">
<path d="M28.4163 54.25L20.2143 46.8875C17.1143 44.0889 14.4552 41.5917 12.2369 39.3958C10.0187 37.2 8.18885 35.1333 6.74735 33.1958C5.30585 31.2583 4.25099 29.3854 3.58276 27.5771C2.91454 25.7688 2.58129 23.8743 2.58301 21.8938C2.58301 17.8465 3.93926 14.477 6.65176 11.7852C9.36426 9.09333 12.7441 7.74828 16.7913 7.75C19.0302 7.75 21.1615 8.22361 23.1851 9.17083C25.2087 10.1181 26.9525 11.4528 28.4163 13.175C29.8802 11.4528 31.624 10.1181 33.6476 9.17083C35.6712 8.22361 37.8025 7.75 40.0413 7.75C43.5288 7.75 46.4566 8.72908 48.8247 10.6873C51.1927 12.6454 52.8073 15.1108 53.6684 18.0833H48.1788C47.4038 16.3611 46.2629 15.0694 44.7559 14.2083C43.249 13.3472 41.6775 12.9167 40.0413 12.9167C37.8455 12.9167 35.9511 13.5091 34.358 14.694C32.765 15.8789 31.2795 17.4392 29.9018 19.375H26.9309C25.5962 17.4375 24.0781 15.8763 22.3765 14.6914C20.675 13.5065 18.8132 12.9149 16.7913 12.9167C14.3372 12.9167 12.2163 13.7674 10.4286 15.469C8.64093 17.1706 7.74796 19.3113 7.74968 21.8912C7.74968 23.312 8.05107 24.7544 8.65385 26.2183C9.25663 27.6821 10.333 29.3725 11.883 31.2893C13.433 33.2044 15.5427 35.4433 18.2122 38.006C20.8816 40.5687 24.283 43.6583 28.4163 47.275C29.5358 46.2847 30.849 45.1438 32.3559 43.8521C33.8629 42.5604 35.0684 41.484 35.9726 40.6229L36.5538 41.2042L37.8145 42.4648L39.0726 43.7229L39.6539 44.3042C38.7066 45.1653 37.5011 46.2313 36.0372 47.5023C34.5733 48.7733 33.2816 49.9031 32.1622 50.8917L28.4163 54.25Z" fill="#456402"/>
<path d="M43.8064 20.5375C45.1782 20.3399 46.6313 21.8395 47.0498 23.9087C47.4683 25.9664 46.7127 27.8031 45.3409 28.0124C43.9808 28.2216 42.516 26.722 42.0859 24.6527C41.6558 22.5951 42.4347 20.7584 43.8064 20.5375ZM52.1183 20.5375C53.5017 20.7584 54.2689 22.5951 53.862 24.6527C53.4203 26.722 51.9671 28.2216 50.5954 28.0124C49.212 27.8031 48.4564 25.9664 48.8865 23.9087C49.305 21.8395 50.7582 20.3399 52.1183 20.5375ZM37.587 25.885C38.9123 25.3154 40.7142 26.35 41.6558 28.1519C42.5393 29.9886 42.237 31.9184 40.9234 32.488C39.6098 33.0576 37.8195 32.0346 36.9012 30.2095C35.9828 28.3844 36.3083 26.443 37.587 25.885ZM58.512 25.885C59.7908 26.443 60.1163 28.3844 59.1979 30.2095C58.2795 32.0346 56.4893 33.0576 55.1756 32.488C53.862 31.9184 53.5598 29.9886 54.4433 28.1519C55.3849 26.35 57.1868 25.3154 58.512 25.885ZM56.5707 38.4167C56.6172 39.5095 55.7802 40.7185 54.7804 41.1719C52.6995 42.1251 50.235 40.1489 47.9217 40.1489C45.6083 40.1489 43.1205 42.2065 41.0745 41.1719C39.912 40.6022 39.1099 39.091 39.261 37.8355C39.4703 36.1034 41.5512 35.1734 42.7834 33.9062C44.4225 32.2671 45.585 29.1865 47.9217 29.1865C50.2467 29.1865 51.4789 32.2206 53.0483 33.9062C54.3386 35.3245 56.4893 36.5219 56.5707 38.4167Z" fill="#456402"/>
</svg>
